<svg id="_grid_item_entrances_icon" data-name="✏️grid/item/entrances/icon" xmlns="http://www.w3.org/2000/svg" xmlns:xlink="http://www.w3.org/1999/xlink" width="48" height="48" viewBox="0 0 48 48">
  <defs>
    <style>
      .cls-1 {
        fill: none;
      }

      .cls-2 {
        fill: #0a59f7;
      }

      .cls-3 {
        clip-path: url(#clip-path);
      }

      .cls-4 {
        fill: #fff;
      }
    </style>
    <clipPath id="clip-path">
      <path id="多边形备份_5" data-name="多边形备份 5" class="cls-1" d="M8.457,3.775a2.5,2.5,0,0,1,4.336,0L19.1,14.755A2.5,2.5,0,0,1,16.931,18.5H4.319a2.5,2.5,0,0,1-2.168-3.745Z" transform="translate(23.5 1.5) rotate(90)"/>
    </clipPath>
  </defs>
  <g id="grid_item_entrances_icon" data-name="grid/item/entrances/icon">
    <g id="Oval_3_Copy_2" data-name="Oval 3 Copy 2">
      <circle id="Oval_3_Copy_2-2" data-name="Oval 3 Copy 2" class="cls-1" cx="24" cy="24" r="24"/>
      <circle id="Oval_3_Copy_2-3" data-name="Oval 3 Copy 2" class="cls-2" cx="24" cy="24" r="24"/>
      <circle id="Oval_3_Copy_2-4" data-name="Oval 3 Copy 2" class="cls-1" cx="24" cy="24" r="24"/>
    </g>
    <g id="Public_ic_public_play" data-name="Public/ic_public_play" transform="translate(12 12)">
      <g id="组_8" data-name="组 8">
        <path id="多边形备份_5-2" data-name="多边形备份 5" class="cls-1" d="M8.457,3.775a2.5,2.5,0,0,1,4.336,0L19.1,14.755A2.5,2.5,0,0,1,16.931,18.5H4.319a2.5,2.5,0,0,1-2.168-3.745Z" transform="translate(23.5 1.5) rotate(90)"/>
        <g id="蒙版组_8" data-name="蒙版组 8" class="cls-3">
          <g id="Symbol_color-light_colorPrimary" data-name="Symbol/color-light/colorPrimary">
            <rect id="color_000000" data-name="color/#000000" class="cls-4" width="24" height="24"/>
          </g>
        </g>
      </g>
    </g>
  </g>
</svg>
