<?xml version="1.0" encoding="UTF-8"?>
<svg width="24px" height="24px" viewBox="0 0 24 24" version="1.1" xmlns="http://www.w3.org/2000/svg" xmlns:xlink="http://www.w3.org/1999/xlink">
    <title>ic_daojishi_off</title>
    <g id="页面-1" stroke="none" stroke-width="1" fill="none" fill-rule="evenodd">
        <g id="Light" transform="translate(-746.000000, -622.000000)" fill="#000000">
            <g id="icon" transform="translate(746.000000, 622.000000)">
                <g id="编组-2" transform="translate(4.000000, 2.000000)">
                    <path d="M14.569697,-9.23705556e-14 C15.1588007,-9.08606954e-14 15.6363636,0.477562934 15.6363636,1.06666667 C15.6363636,1.6557704 15.1588007,2.13333333 14.569697,2.13333333 L14.2963636,2.133 L14.2970779,3.97261905 C14.2970779,6.48165028 12.7971968,8.64036549 10.645141,9.60105814 C12.7971968,10.5596345 14.2970779,12.7183497 14.2970779,15.227381 L14.2963636,17.866 L14.569697,17.8666667 C15.1588007,17.8666667 15.6363636,18.3442296 15.6363636,18.9333333 C15.6363636,19.5224371 15.1588007,20 14.569697,20 L1.7030303,20 C1.11392657,20 0.636363636,19.5224371 0.636363636,18.9333333 C0.636363636,18.3442296 1.11392657,17.8666667 1.7030303,17.8666667 L1.97536364,17.866 L1.97564935,15.227381 C1.97564935,12.7183497 3.47553051,10.5596345 5.62758629,9.59894186 C3.47553051,8.64036549 1.97564935,6.48165028 1.97564935,3.97261905 L1.97564935,3.97261905 L1.97536364,2.133 L1.7030303,2.13333333 C1.11392657,2.13333333 0.636363636,1.6557704 0.636363636,1.06666667 C0.636363636,0.477562934 1.11392657,-9.20402944e-14 1.7030303,-9.23705556e-14 L14.569697,-9.23705556e-14 Z" id="形状结合" opacity="0.200000003"></path>
                    <path d="M6.60511364,16.03125 C8.53811026,15.185564 10.7906776,16.0670034 11.6363636,18 L11.6363636,18 L4.63636364,18 C5.02159848,17.1194632 5.72457686,16.4164848 6.60511364,16.03125 Z M12.3,4 C12.3,6.37482442 10.4419817,8.3 8.15,8.3 C5.85801829,8.3 4,6.37482442 4,4 L4,4 Z" id="形状结合" opacity="0.25"></path>
                </g>
            </g>
        </g>
    </g>
</svg>